<?xml version="1.0" encoding="utf-8"?>
<!-- Generator: Adobe Illustrator 18.1.1, SVG Export Plug-In . SVG Version: 6.00 Build 0)  -->
<svg version="1.1" id="Layer_1" xmlns="http://www.w3.org/2000/svg" xmlns:xlink="http://www.w3.org/1999/xlink" x="0px" y="0px"
	 viewBox="0 0 600 600" enable-background="new 0 0 600 600" xml:space="preserve">
<g>
	<path class="logo" d="M127.6,549.8V477c0.9,0,2.3,0.1,4.1,0.3c1.8,0.2,5,0,9.6-0.7c4.6-0.7,8.6-2.1,12-4.1c3.4-2.1,6.6-5.9,9.6-11.7
		c3-5.7,4.5-12.7,4.5-20.9V40.2h74.2v411.4c0,30.7-8.8,55.3-26.4,73.8C197.6,543.9,168.4,552,127.6,549.8z"/>
	<path class="logo" d="M293.1,544.9V40.2h169.6v76.2h-95.5v132.5H436v81h-68.7v138.7h95.5v76.2H293.1z"/>
</g>
</svg>
