<svg height="61" viewBox="0 0 214 61" width="214" xmlns="http://www.w3.org/2000/svg"><g fill="none" fill-rule="evenodd"><path d="m0 0h214v61h-214z" fill="#fff"/><path d="m4 3.20435246h203.405507v.59129508h-203.405507z" fill="#ebebeb"/><path d="m4 29.812631h203.405507v.5912951h-203.405507z" fill="#ebebeb"/><path d="m4 56.4209096h203.405507v.5912951h-203.405507z" fill="#ebebeb"/><path d="m6.36518032 13.8476639h6.50424588v5.9129508h-6.50424588z" fill="#ffa400"/><text fill="#2c2c2c" font-family="Roboto-Medium, Roboto" font-size="9.460721" font-weight="400"><tspan x="20.556262" y="17.673832">Speed Index</tspan></text><text fill="#db5f00" font-family="Roboto-Medium, Roboto" font-size="9.460721" font-weight="400"><tspan x="186.756377" y="17.673832">1.5 s</tspan></text><path d="m13.4607213 43.4124179c0 .4704284-.0900348.9229938-.2700782 1.3576608-.1800334.4345959-.4363793.8182282-.7690461 1.1509381-.3326667.3326803-.7163279.5890245-1.1509842.7690384-.4346522.1800552-.8872046.2701331-1.35766201.2701331-.47046629 0-.92302817-.0900779-1.35767972-.2701331-.43465215-.1800139-.81831337-.4363581-1.15097539-.7690384-.33267148-.3327099-.58902628-.7163422-.7690644-1.1509736-.1800387-.4346315-.27005096-.8871969-.27005096-1.3576253 0-.4705054.09000812-.9230708.27004623-1.3577318.18003871-.4346669.43639765-.8182992.76906913-1.1509441.33266202-.3326744.7163191-.5890185 1.15097066-.7690679.43465628-.1800198.88721816-.2700267 1.35768445-.2700267.47045741 0 .92300981.0900069 1.35766201.2700267.4346563.1800494.8183175.4363935 1.1509842.7690679.3326668.3326449.5890127.7162772.7690556 1.1509441.1800428.434661.2700687.8872264.2700687 1.3577318z" fill="#0cce6b"/><g font-family="Roboto-Medium, Roboto" font-size="9.460721" font-weight="400"><text fill="#2c2c2c"><tspan x="20.556262" y="44.282111">Time t</tspan></text><text fill="#2c2c2c"><tspan x="47.386276" y="44.282111">o Inter</tspan></text><text fill="#2c2c2c"><tspan x="74.470363" y="44.282111">activ</tspan></text><text fill="#2c2c2c"><tspan x="94.72222" y="44.282111">e</tspan></text><text fill="#009554"><tspan x="186.756377" y="44.282111">1.9 s</tspan></text></g></g></svg>