<svg height="86" viewBox="0 0 88 86" width="88" xmlns="http://www.w3.org/2000/svg"><g><circle cx="66" cy="34" r="13"/><circle cx="38.5" cy="56.5" r="17.5"/><circle cx="17.5" cy="32.5" r="9.5"/><circle cx="69.5" cy="66.5" r="6.5"/><circle cx="16.5" cy="5.5" r="1.5"/><circle cx="6.5" cy="5.5" r="1.5"/><circle cx="11.5" cy="5.5" r="1.5"/><path d="m.5 11h87.1469318v-2h-87.1469318z"/><path d="m2 2v82h84v-82zm0-2h84c1.1045695 0 2 .8954305 2 2v82c0 1.1045695-.8954305 2-2 2h-84c-1.1045695 0-2-.8954305-2-2v-82c0-1.1045695.8954305-2 2-2z"/></g></svg>