<svg height="64" viewBox="0 0 44 64" width="44" xmlns="http://www.w3.org/2000/svg"><g transform="translate(.3)"><path d="m32.6 4.9h-5.1c-.5-2.8-2.9-4.9-5.8-4.9s-5.3 2.1-5.8 4.9h-5.1c-.6 0-1 .4-1 1v2.4h-5.9c-2.2 0-3.9 1.8-3.9 3.9v47.9c0 2.2 1.8 3.9 3.9 3.9h35.6c2.2 0 3.9-1.8 3.9-3.9v-47.9c0-2.2-1.8-3.9-3.9-3.9h-5.9v-2.4c0-.6-.4-1-1-1zm-20.8 2h5c.6 0 1-.4 1-1 0-2.2 1.8-3.9 3.9-3.9s3.9 1.7 3.9 3.9c0 .6.4 1 1 1h5v4.4h-19.8zm27.7 3.4c1.1 0 1.9.9 1.9 1.9v47.9c0 1.1-.9 1.9-1.9 1.9h-35.6c-1.1 0-1.9-.9-1.9-1.9v-47.9c0-1.1.9-1.9 1.9-1.9h5.9v1.9c0 .6.4 1 1 1h21.8c.6 0 1-.4 1-1v-1.9z"/><path d="m23.7 16.7c-.6 0-1 .4-1 1v9.8c0 .6.4 1 1 1h9.7c.6 0 1-.5 1-1 0-5.9-4.8-10.8-10.7-10.8zm1 9.8v-7.7c4 .5 7.2 3.7 7.7 7.7z"/><path d="m19.7 42.2c2.9 0 5.6-1.1 7.6-3.2 2-2 3.1-4.7 3.1-7.6 0-.6-.4-1-1-1h-8.7v-8.8c0-.6-.5-1-1-1-2.8 0-5.5 1.1-7.6 3.1-4.2 4.2-4.2 11 0 15.2 2 2.2 4.7 3.3 7.6 3.3zm-6.2-16.9c1.4-1.4 3.2-2.3 5.2-2.5v8.7c0 .6.4 1 1 1h8.7c-.2 2-1.1 3.8-2.5 5.2-1.6 1.7-3.8 2.6-6.2 2.6-2.3 0-4.5-.9-6.2-2.6-3.4-3.4-3.4-9 0-12.4z"/><path d="m37.4 56.5h-31.4c-.6 0-1 .4-1 1s.4 1 1 1h31.4c.6 0 1-.4 1-1s-.5-1-1-1z"/><path d="m37.4 50.9h-31.4c-.6 0-1 .4-1 1s.4 1 1 1h31.4c.6 0 1-.4 1-1s-.5-1-1-1z"/><path d="m5 46.2c0 .6.4 1 1 1h31.4c.6 0 1-.4 1-1s-.4-1-1-1h-31.4c-.5 0-1 .5-1 1z"/></g></svg>