<svg height="116" viewBox="0 0 150 116" width="150" xmlns="http://www.w3.org/2000/svg"><g transform="translate(.105 .895)"><path d="m146.29 0h-142.79c-1.933 0-3.5 1.567-3.5 3.5v107.21c0 1.933 1.567 3.5 3.5 3.5h22.94 96.53 23.32c1.933 0 3.5-1.567 3.5-3.5v-107.21c0-1.933-1.567-3.5-3.5-3.5zm-3.5 7v12.431h-135.79v-12.431zm-58.823 100.21c-.066-.169-.132-.337-.207-.502l14.535-14.536c1.367-1.366 1.367-3.583 0-4.949-1.367-1.367-3.583-1.367-4.95 0l-14.536 14.536c-1.253-.572-2.639-.9-4.1-.9-4.2 0-7.811 2.645-9.258 6.351h-35.368c.802-10.026 4.929-19.132 11.273-26.216l4.737 4.737c.488.488 1.128.732 1.768.732s1.28-.244 1.768-.732c.976-.977.976-2.56 0-3.535l-4.73-4.729c7.344-6.57 16.854-10.761 27.31-11.341v6.717c0 1.381 1.119 2.5 2.5 2.5s2.5-1.119 2.5-2.5v-6.718c10.456.579 19.966 4.771 27.309 11.342l-4.728 4.728c-.977.977-.977 2.559 0 3.535.488.488 1.128.732 1.768.732s1.279-.244 1.768-.732l4.735-4.735c6.341 7.084 10.468 16.189 11.269 26.214h-35.363zm42.365 0c-1.855-26.857-24.31-48.16-51.622-48.16-27.317 0-49.777 21.303-51.632 48.16h-16.078v-82.779h135.791v82.779z"/><circle cx="14.847" cy="13.21" r="3.042"/><circle cx="26.653" cy="13.21" r="3.042"/><circle cx="38.458" cy="13.21" r="3.042"/></g></svg>