<svg height="16" viewBox="0 0 16 16" width="16" xmlns="http://www.w3.org/2000/svg"><path d="m17 1c1.1040486.00125647 1.9987435.89595137 2 2v10c-.0012565 1.1040486-.8959514 1.9987435-2 2h-10c-1.10404863-.0012565-1.99874353-.8959514-2-2v-10c.00125647-1.10404863.89595137-1.99874353 2-2zm0-1h-10c-1.65685425 0-3 1.34314575-3 3v10c0 1.6568542 1.34314575 3 3 3h10c1.6568542 0 3-1.3431458 3-3v-10c0-1.65685425-1.3431458-3-3-3zm-9 12.5v-3c0-.27614237-.22385763-.5-.5-.5s-.5.22385763-.5.5v3c0 .2761424.22385763.5.5.5s.5-.2238576.5-.5zm3 0v-5c0-.27614237-.2238576-.5-.5-.5s-.5.22385763-.5.5v5c0 .2761424.2238576.5.5.5s.5-.2238576.5-.5zm3 0v-9c0-.27614237-.2238576-.5-.5-.5s-.5.22385763-.5.5v9c0 .2761424.2238576.5.5.5s.5-.2238576.5-.5zm3 0v-7c0-.27614237-.2238576-.5-.5-.5s-.5.22385763-.5.5v7c0 .2761424.2238576.5.5.5s.5-.2238576.5-.5z" transform="translate(-4)"/></svg>