<svg width="1125" height="316" viewBox="0 0 1125 316" fill="none" xmlns="http://www.w3.org/2000/svg">
<rect width="1124.98" height="316" fill="white"/>
<path d="M1070.18 138.786H54.7573V141.514H1070.18V138.786Z" fill="#EBEBEB"/>
<path d="M1070.18 251.303H54.7573V254.032H1070.18V251.303Z" fill="#EBEBEB"/>
<path d="M87.96 83.0234C84.8702 82.1352 82.6186 81.0469 81.205 79.7585C79.804 78.4575 79.1035 76.8563 79.1035 74.9549C79.1035 72.8034 79.9604 71.0271 81.6741 69.626C83.4004 68.2125 85.6395 67.5057 88.3916 67.5057C90.2679 67.5057 91.9379 67.8685 93.4015 68.594C94.8776 69.3195 96.0159 70.3203 96.8165 71.5962C97.6296 72.8722 98.0361 74.2669 98.0361 75.7805H94.4147C94.4147 74.1293 93.8893 72.8346 92.8386 71.8964C91.7878 70.9457 90.3055 70.4704 88.3916 70.4704C86.6153 70.4704 85.2267 70.8644 84.226 71.6525C83.2378 72.4281 82.7437 73.5101 82.7437 74.8986C82.7437 76.012 83.2128 76.9564 84.1509 77.732C85.1016 78.495 86.7091 79.1955 88.9732 79.8335C91.2499 80.4715 93.0262 81.1783 94.3022 81.9538C95.5906 82.7169 96.5413 83.6113 97.1542 84.637C97.7797 85.6628 98.0924 86.8699 98.0924 88.2585C98.0924 90.4726 97.2293 92.2489 95.503 93.5874C93.7768 94.9133 91.4688 95.5763 88.5792 95.5763C86.7028 95.5763 84.9515 95.2198 83.3253 94.5068C81.6991 93.7813 80.442 92.793 79.5538 91.5421C78.6782 90.2912 78.2404 88.8714 78.2404 87.2827H81.8618C81.8618 88.9339 82.4685 90.2412 83.6819 91.2044C84.9078 92.1551 86.5402 92.6304 88.5792 92.6304C90.4806 92.6304 91.9379 92.2426 92.9512 91.4671C93.9644 90.6915 94.471 89.6345 94.471 88.296C94.471 86.9575 94.0019 85.9255 93.0637 85.2C92.1256 84.4619 90.4243 83.7364 87.96 83.0234ZM119.333 85.275C119.333 88.3648 118.626 90.8541 117.213 92.743C115.799 94.6319 113.885 95.5763 111.471 95.5763C109.007 95.5763 107.068 94.7945 105.654 93.2309V103.007H102.183V74.8986H105.354L105.523 77.1503C106.936 75.399 108.9 74.5234 111.415 74.5234C113.854 74.5234 115.78 75.4428 117.194 77.2816C118.62 79.1205 119.333 81.6786 119.333 84.956V85.275ZM115.862 84.881C115.862 82.5918 115.374 80.7842 114.398 79.4582C113.422 78.1323 112.084 77.4693 110.383 77.4693C108.281 77.4693 106.705 78.4012 105.654 80.2651V89.966C106.693 91.8173 108.281 92.743 110.42 92.743C112.084 92.743 113.404 92.0863 114.379 90.7728C115.368 89.4468 115.862 87.4829 115.862 84.881ZM132.186 95.5763C129.434 95.5763 127.195 94.6757 125.469 92.8743C123.743 91.0605 122.879 88.64 122.879 85.6128V84.9748C122.879 82.9608 123.261 81.1657 124.024 79.5896C124.8 78.0009 125.875 76.7625 127.251 75.8744C128.64 74.9737 130.141 74.5234 131.755 74.5234C134.394 74.5234 136.446 75.3928 137.909 77.1315C139.373 78.8703 140.105 81.3596 140.105 84.5995V86.0443H126.351C126.401 88.0458 126.982 89.6657 128.096 90.9041C129.222 92.13 130.648 92.743 132.374 92.743C133.6 92.743 134.638 92.4928 135.489 91.9924C136.339 91.4921 137.084 90.8291 137.722 90.0035L139.842 91.6547C138.141 94.2691 135.589 95.5763 132.186 95.5763ZM131.755 77.3755C130.354 77.3755 129.178 77.8883 128.227 78.9141C127.276 79.9273 126.688 81.3534 126.463 83.1922H136.633V82.9295C136.533 81.1657 136.058 79.8022 135.207 78.839C134.357 77.8633 133.206 77.3755 131.755 77.3755ZM152.564 95.5763C149.812 95.5763 147.573 94.6757 145.846 92.8743C144.12 91.0605 143.257 88.64 143.257 85.6128V84.9748C143.257 82.9608 143.638 81.1657 144.401 79.5896C145.177 78.0009 146.253 76.7625 147.629 75.8744C149.017 74.9737 150.518 74.5234 152.132 74.5234C154.772 74.5234 156.823 75.3928 158.287 77.1315C159.75 78.8703 160.482 81.3596 160.482 84.5995V86.0443H146.728C146.778 88.0458 147.36 89.6657 148.473 90.9041C149.599 92.13 151.025 92.743 152.751 92.743C153.977 92.743 155.015 92.4928 155.866 91.9924C156.717 91.4921 157.461 90.8291 158.099 90.0035L160.219 91.6547C158.518 94.2691 155.966 95.5763 152.564 95.5763ZM152.132 77.3755C150.731 77.3755 149.555 77.8883 148.605 78.9141C147.654 79.9273 147.066 81.3534 146.841 83.1922H157.011V82.9295C156.911 81.1657 156.435 79.8022 155.585 78.839C154.734 77.8633 153.583 77.3755 152.132 77.3755ZM163.672 84.881C163.672 81.7662 164.41 79.2643 165.886 77.3755C167.362 75.4741 169.295 74.5234 171.684 74.5234C174.061 74.5234 175.943 75.3365 177.332 76.9627V66.3799H180.803V95.201H177.613L177.444 93.0245C176.056 94.7257 174.123 95.5763 171.646 95.5763C169.295 95.5763 167.375 94.6131 165.886 92.6867C164.41 90.7603 163.672 88.2459 163.672 85.1437V84.881ZM167.143 85.275C167.143 87.5767 167.618 89.378 168.569 90.679C169.52 91.9799 170.833 92.6304 172.51 92.6304C174.711 92.6304 176.319 91.6422 177.332 89.6657V80.3401C176.294 78.4262 174.699 77.4693 172.547 77.4693C170.846 77.4693 169.52 78.126 168.569 79.4395C167.618 80.7529 167.143 82.6981 167.143 85.275ZM200.149 95.201H196.546V67.881H200.149V95.201ZM209.493 74.8986L209.606 77.4505C211.157 75.4991 213.183 74.5234 215.685 74.5234C219.976 74.5234 222.14 76.9439 222.177 81.7849V95.201H218.706V81.7662C218.693 80.3026 218.356 79.2206 217.693 78.5201C217.042 77.8195 216.023 77.4693 214.634 77.4693C213.508 77.4693 212.52 77.7695 211.67 78.3699C210.819 78.9704 210.156 79.7585 209.681 80.7342V95.201H206.209V74.8986H209.493ZM226.568 84.881C226.568 81.7662 227.306 79.2643 228.782 77.3755C230.258 75.4741 232.191 74.5234 234.58 74.5234C236.957 74.5234 238.84 75.3365 240.228 76.9627V66.3799H243.699V95.201H240.51L240.341 93.0245C238.952 94.7257 237.019 95.5763 234.543 95.5763C232.191 95.5763 230.271 94.6131 228.782 92.6867C227.306 90.7603 226.568 88.2459 226.568 85.1437V84.881ZM230.039 85.275C230.039 87.5767 230.515 89.378 231.465 90.679C232.416 91.9799 233.73 92.6304 235.406 92.6304C237.607 92.6304 239.215 91.6422 240.228 89.6657V80.3401C239.19 78.4262 237.595 77.4693 235.443 77.4693C233.742 77.4693 232.416 78.126 231.465 79.4395C230.515 80.7529 230.039 82.6981 230.039 85.275ZM257.528 95.5763C254.776 95.5763 252.537 94.6757 250.811 92.8743C249.085 91.0605 248.221 88.64 248.221 85.6128V84.9748C248.221 82.9608 248.603 81.1657 249.366 79.5896C250.142 78.0009 251.217 76.7625 252.593 75.8744C253.982 74.9737 255.483 74.5234 257.097 74.5234C259.736 74.5234 261.788 75.3928 263.251 77.1315C264.715 78.8703 265.447 81.3596 265.447 84.5995V86.0443H251.693C251.743 88.0458 252.324 89.6657 253.438 90.9041C254.564 92.13 255.99 92.743 257.716 92.743C258.942 92.743 259.98 92.4928 260.831 91.9924C261.681 91.4921 262.426 90.8291 263.064 90.0035L265.184 91.6547C263.483 94.2691 260.931 95.5763 257.528 95.5763ZM257.097 77.3755C255.696 77.3755 254.52 77.8883 253.569 78.9141C252.618 79.9273 252.03 81.3534 251.805 83.1922H261.975V82.9295C261.875 81.1657 261.4 79.8022 260.549 78.839C259.699 77.8633 258.548 77.3755 257.097 77.3755ZM276.292 82.3103L280.795 74.8986H284.848L278.206 84.9373L285.055 95.201H281.039L276.348 87.6017L271.657 95.201H267.623L274.472 84.9373L267.83 74.8986H271.845L276.292 82.3103Z" fill="black"/>
<path d="M818.995 95.201H815.505V72.0653L808.506 74.636V71.4836L818.451 67.7496H818.995V95.201ZM847.066 95.201H829.165V92.7055L838.622 82.1978C840.023 80.6091 840.986 79.3206 841.512 78.3324C842.05 77.3317 842.319 76.2997 842.319 75.2364C842.319 73.8103 841.887 72.6407 841.024 71.7276C840.161 70.8144 839.01 70.3578 837.571 70.3578C835.845 70.3578 834.5 70.8519 833.537 71.8401C832.586 72.8159 832.111 74.1794 832.111 75.9307H828.64C828.64 73.4163 829.447 71.3836 831.06 69.8324C832.687 68.2813 834.857 67.5057 837.571 67.5057C840.111 67.5057 842.118 68.175 843.595 69.5134C845.071 70.8394 845.809 72.6095 845.809 74.8236C845.809 77.5131 844.095 80.7154 840.667 84.4306L833.349 92.3677H847.066V95.201ZM850.987 100.643L849.017 99.2916C850.193 97.6528 850.806 95.9641 850.856 94.2253V91.0918H854.252V93.8125C854.252 95.076 853.94 96.3394 853.314 97.6028C852.701 98.8662 851.926 99.8795 850.987 100.643ZM872.941 86.0256H876.731V88.8589H872.941V95.201H869.451V88.8589H857.011V86.8136L869.245 67.881H872.941V86.0256ZM860.951 86.0256H869.451V72.6282L869.038 73.3788L860.951 86.0256ZM893.487 67.8622V70.8081H892.849C890.147 70.8582 887.996 71.6588 886.395 73.2099C884.794 74.761 883.868 76.9439 883.618 79.7585C885.056 78.1072 887.02 77.2816 889.509 77.2816C891.886 77.2816 893.781 78.1198 895.195 79.796C896.621 81.4722 897.334 83.6363 897.334 86.2883C897.334 89.1028 896.565 91.3545 895.026 93.0432C893.5 94.732 891.448 95.5763 888.872 95.5763C886.257 95.5763 884.137 94.5756 882.511 92.5741C880.884 90.5601 880.071 87.9707 880.071 84.8059V83.4737C880.071 78.445 881.141 74.6047 883.28 71.9527C885.431 69.2883 888.628 67.9248 892.868 67.8622H893.487ZM888.928 80.1713C887.739 80.1713 886.645 80.5278 885.644 81.2408C884.643 81.9538 883.949 82.8482 883.561 83.924V85.2C883.561 87.4516 884.068 89.2654 885.081 90.6415C886.094 92.0175 887.358 92.7055 888.872 92.7055C890.435 92.7055 891.661 92.13 892.549 90.9792C893.45 89.8284 893.9 88.321 893.9 86.4571C893.9 84.5808 893.444 83.0671 892.53 81.9163C891.63 80.7529 890.429 80.1713 888.928 80.1713ZM918.575 83.5487C918.575 87.6142 917.88 90.6352 916.492 92.6116C915.103 94.5881 912.933 95.5763 909.981 95.5763C907.066 95.5763 904.908 94.6131 903.507 92.6867C902.106 90.7478 901.381 87.8582 901.331 84.0178V79.3832C901.331 75.3677 902.025 72.3843 903.413 70.4329C904.802 68.4814 906.979 67.5057 909.943 67.5057C912.883 67.5057 915.047 68.4502 916.435 70.339C917.824 72.2154 918.537 75.1176 918.575 79.0454V83.5487ZM915.103 78.8015C915.103 75.8619 914.69 73.7228 913.865 72.3843C913.039 71.0333 911.732 70.3578 909.943 70.3578C908.167 70.3578 906.872 71.0271 906.059 72.3655C905.246 73.704 904.827 75.7618 904.802 78.5388V84.0929C904.802 87.0451 905.227 89.2279 906.078 90.6415C906.941 92.0425 908.242 92.743 909.981 92.743C911.695 92.743 912.964 92.08 913.79 90.754C914.628 89.4281 915.066 87.339 915.103 84.4869V78.8015ZM936.175 74.8986L936.269 77.1503C937.757 75.399 939.765 74.5234 942.292 74.5234C945.132 74.5234 947.064 75.6117 948.09 77.7883C948.765 76.8125 949.641 76.0245 950.717 75.424C951.805 74.8236 953.087 74.5234 954.563 74.5234C959.017 74.5234 961.281 76.8813 961.356 81.5973V95.201H957.885V81.8037C957.885 80.3526 957.553 79.2706 956.89 78.5576C956.227 77.832 955.114 77.4693 953.55 77.4693C952.262 77.4693 951.192 77.8571 950.342 78.6326C949.491 79.3957 948.997 80.4277 948.859 81.7287V95.201H945.369V81.8975C945.369 78.9454 943.924 77.4693 941.035 77.4693C938.758 77.4693 937.201 78.4387 936.363 80.3777V95.201H932.891V74.8986H936.175ZM978.431 89.8158C978.431 88.8777 978.075 88.1521 977.361 87.6392C976.661 87.1139 975.429 86.6635 973.665 86.2883C971.914 85.913 970.519 85.4626 969.481 84.9373C968.455 84.4119 967.692 83.7864 967.192 83.0609C966.704 82.3354 966.46 81.4722 966.46 80.4715C966.46 78.8078 967.16 77.4005 968.561 76.2496C969.975 75.0988 971.776 74.5234 973.965 74.5234C976.267 74.5234 978.131 75.1176 979.557 76.3059C980.995 77.4943 981.715 79.0142 981.715 80.8655H978.225C978.225 79.9148 977.818 79.0955 977.005 78.4075C976.204 77.7195 975.191 77.3755 973.965 77.3755C972.702 77.3755 971.714 77.6507 971.001 78.2011C970.288 78.7515 969.931 79.4708 969.931 80.3589C969.931 81.197 970.263 81.8287 970.926 82.254C971.588 82.6794 972.783 83.0859 974.509 83.4737C976.248 83.8615 977.655 84.3243 978.731 84.8622C979.807 85.4001 980.601 86.0506 981.114 86.8136C981.64 87.5642 981.902 88.4836 981.902 89.5719C981.902 91.3857 981.177 92.8431 979.726 93.9439C978.275 95.0322 976.392 95.5763 974.078 95.5763C972.452 95.5763 971.013 95.2886 969.762 94.7132C968.511 94.1378 967.529 93.3372 966.816 92.3114C966.116 91.2732 965.765 90.1536 965.765 88.9527H969.237C969.299 90.1161 969.762 91.0417 970.625 91.7298C971.501 92.4052 972.652 92.743 974.078 92.743C975.391 92.743 976.442 92.4803 977.23 91.9549C978.031 91.417 978.431 90.704 978.431 89.8158Z" fill="black"/>
<path d="M1025.36 87.574H1021.74V80.2469H1025.36V87.574ZM1025.36 94.8621H1021.74V91.2376H1025.36V94.8621ZM1003.42 100.357H1043.68L1023.53 65.5928L1003.42 100.357Z" fill="#C7221F"/>
<path d="M98.7867 183.364H90.0052V207.719H86.4214V183.364H77.6587V180.399H98.7867V183.364ZM106.067 207.719H102.596V187.417H106.067V207.719ZM102.314 182.031C102.314 181.468 102.483 180.993 102.821 180.605C103.171 180.218 103.684 180.024 104.36 180.024C105.035 180.024 105.548 180.218 105.898 180.605C106.248 180.993 106.424 181.468 106.424 182.031C106.424 182.594 106.248 183.063 105.898 183.439C105.548 183.814 105.035 184.002 104.36 184.002C103.684 184.002 103.171 183.814 102.821 183.439C102.483 183.063 102.314 182.594 102.314 182.031ZM114.905 187.417L114.999 189.668C116.487 187.917 118.495 187.041 121.022 187.041C123.861 187.041 125.794 188.13 126.82 190.306C127.495 189.33 128.371 188.542 129.447 187.942C130.535 187.342 131.817 187.041 133.293 187.041C137.747 187.041 140.011 189.399 140.086 194.115V207.719H136.614V194.322C136.614 192.871 136.283 191.789 135.62 191.076C134.957 190.35 133.844 189.987 132.28 189.987C130.992 189.987 129.922 190.375 129.071 191.151C128.221 191.914 127.727 192.946 127.589 194.247V207.719H124.099V194.415C124.099 191.463 122.654 189.987 119.765 189.987C117.488 189.987 115.931 190.957 115.092 192.896V207.719H111.621V187.417H114.905ZM153.765 208.094C151.013 208.094 148.773 207.194 147.047 205.392C145.321 203.578 144.458 201.158 144.458 198.131V197.493C144.458 195.479 144.839 193.684 145.602 192.108C146.378 190.519 147.454 189.28 148.83 188.392C150.218 187.492 151.719 187.041 153.333 187.041C155.972 187.041 158.024 187.911 159.488 189.649C160.951 191.388 161.683 193.878 161.683 197.117V198.562H147.929C147.979 200.564 148.561 202.184 149.674 203.422C150.8 204.648 152.226 205.261 153.952 205.261C155.178 205.261 156.216 205.011 157.067 204.51C157.918 204.01 158.662 203.347 159.3 202.521L161.42 204.173C159.719 206.787 157.167 208.094 153.765 208.094ZM153.333 189.893C151.932 189.893 150.756 190.406 149.805 191.432C148.855 192.445 148.267 193.871 148.042 195.71H158.212V195.447C158.111 193.684 157.636 192.32 156.786 191.357C155.935 190.381 154.784 189.893 153.333 189.893ZM179.959 182.5V187.417H183.749V190.1H179.959V202.69C179.959 203.503 180.128 204.116 180.465 204.529C180.803 204.929 181.379 205.13 182.192 205.13C182.592 205.13 183.142 205.055 183.843 204.904V207.719C182.93 207.969 182.042 208.094 181.178 208.094C179.627 208.094 178.458 207.625 177.67 206.687C176.882 205.749 176.487 204.417 176.487 202.69V190.1H172.791V187.417H176.487V182.5H179.959Z" fill="black"/>
<path d="M186.405 197.38C186.405 195.391 186.793 193.602 187.569 192.014C188.357 190.425 189.445 189.199 190.834 188.336C192.235 187.473 193.829 187.041 195.618 187.041C198.383 187.041 200.616 187.998 202.317 189.912C204.031 191.826 204.888 194.372 204.888 197.549V197.793C204.888 199.769 204.506 201.546 203.743 203.122C202.992 204.686 201.91 205.905 200.497 206.781C199.096 207.656 197.482 208.094 195.656 208.094C192.904 208.094 190.671 207.137 188.957 205.223C187.256 203.31 186.405 200.776 186.405 197.624V197.38ZM189.895 197.793C189.895 200.045 190.414 201.852 191.453 203.216C192.503 204.579 193.905 205.261 195.656 205.261C197.42 205.261 198.821 204.573 199.859 203.197C200.897 201.808 201.416 199.869 201.416 197.38C201.416 195.154 200.885 193.352 199.821 191.976C198.771 190.588 197.37 189.893 195.618 189.893C193.905 189.893 192.522 190.575 191.471 191.939C190.421 193.302 189.895 195.254 189.895 197.793ZM223.182 207.719H219.58V180.399H223.182V207.719ZM232.527 187.417L232.639 189.968C234.19 188.017 236.217 187.041 238.719 187.041C243.009 187.041 245.173 189.462 245.211 194.303V207.719H241.74V194.284C241.727 192.821 241.389 191.739 240.726 191.038C240.076 190.337 239.056 189.987 237.668 189.987C236.542 189.987 235.554 190.287 234.703 190.888C233.853 191.488 233.19 192.276 232.714 193.252V207.719H229.243V187.417H232.527ZM255.156 182.5V187.417H258.946V190.1H255.156V202.69C255.156 203.503 255.325 204.116 255.662 204.529C256 204.929 256.576 205.13 257.389 205.13C257.789 205.13 258.339 205.055 259.04 204.904V207.719C258.127 207.969 257.239 208.094 256.375 208.094C254.824 208.094 253.655 207.625 252.867 206.687C252.078 205.749 251.684 204.417 251.684 202.69V190.1H247.988V187.417H251.684V182.5H255.156ZM271.443 208.094C268.691 208.094 266.452 207.194 264.725 205.392C262.999 203.578 262.136 201.158 262.136 198.131V197.493C262.136 195.479 262.517 193.684 263.28 192.108C264.056 190.519 265.132 189.28 266.508 188.392C267.896 187.492 269.397 187.041 271.011 187.041C273.651 187.041 275.702 187.911 277.166 189.649C278.629 191.388 279.361 193.878 279.361 197.117V198.562H265.607C265.657 200.564 266.239 202.184 267.352 203.422C268.478 204.648 269.904 205.261 271.63 205.261C272.856 205.261 273.894 205.011 274.745 204.51C275.596 204.01 276.34 203.347 276.978 202.521L279.098 204.173C277.397 206.787 274.845 208.094 271.443 208.094ZM271.011 189.893C269.61 189.893 268.434 190.406 267.484 191.432C266.533 192.445 265.945 193.871 265.72 195.71H275.89V195.447C275.79 193.684 275.314 192.32 274.464 191.357C273.613 190.381 272.462 189.893 271.011 189.893ZM293.209 190.531C292.683 190.444 292.114 190.4 291.501 190.4C289.225 190.4 287.68 191.369 286.867 193.308V207.719H283.395V187.417H286.773L286.829 189.762C287.967 187.948 289.581 187.041 291.67 187.041C292.346 187.041 292.858 187.129 293.209 187.304V190.531Z" fill="black"/>
<path d="M308.089 207.719C307.889 207.319 307.727 206.606 307.601 205.58C305.988 207.256 304.061 208.094 301.822 208.094C299.821 208.094 298.176 207.531 296.887 206.406C295.611 205.267 294.973 203.829 294.973 202.09C294.973 199.976 295.774 198.337 297.375 197.174C298.989 195.998 301.253 195.41 304.168 195.41H307.545V193.815C307.545 192.602 307.182 191.638 306.457 190.925C305.731 190.2 304.662 189.837 303.248 189.837C302.01 189.837 300.972 190.15 300.134 190.775C299.295 191.401 298.876 192.158 298.876 193.046H295.386C295.386 192.032 295.743 191.057 296.456 190.119C297.181 189.168 298.157 188.417 299.383 187.867C300.621 187.317 301.979 187.041 303.455 187.041C305.794 187.041 307.627 187.629 308.952 188.805C310.278 189.968 310.966 191.576 311.017 193.627V202.972C311.017 204.836 311.254 206.318 311.73 207.419V207.719H308.089ZM302.329 205.073C303.417 205.073 304.449 204.792 305.425 204.229C306.401 203.666 307.107 202.934 307.545 202.034V197.868H304.824C300.571 197.868 298.445 199.113 298.445 201.602C298.445 202.69 298.808 203.541 299.533 204.154C300.259 204.767 301.191 205.073 302.329 205.073ZM324.601 205.261C325.84 205.261 326.922 204.886 327.848 204.135C328.773 203.385 329.286 202.446 329.386 201.321H332.67C332.607 202.484 332.207 203.591 331.469 204.642C330.731 205.693 329.743 206.531 328.504 207.156C327.278 207.782 325.977 208.094 324.601 208.094C321.837 208.094 319.635 207.175 317.997 205.336C316.37 203.485 315.557 200.958 315.557 197.755V197.174C315.557 195.197 315.92 193.44 316.646 191.901C317.371 190.363 318.409 189.168 319.76 188.317C321.124 187.467 322.731 187.041 324.583 187.041C326.859 187.041 328.748 187.723 330.249 189.087C331.763 190.45 332.57 192.22 332.67 194.397H329.386C329.286 193.083 328.786 192.007 327.885 191.169C326.997 190.319 325.896 189.893 324.583 189.893C322.819 189.893 321.449 190.531 320.473 191.807C319.51 193.071 319.029 194.903 319.029 197.305V197.962C319.029 200.301 319.51 202.102 320.473 203.366C321.437 204.629 322.813 205.261 324.601 205.261ZM341.282 182.5V187.417H345.073V190.1H341.282V202.69C341.282 203.503 341.451 204.116 341.789 204.529C342.127 204.929 342.702 205.13 343.515 205.13C343.916 205.13 344.466 205.055 345.167 204.904V207.719C344.253 207.969 343.365 208.094 342.502 208.094C340.951 208.094 339.781 207.625 338.993 206.687C338.205 205.749 337.811 204.417 337.811 202.69V190.1H334.115V187.417H337.811V182.5H341.282ZM352.916 207.719H349.445V187.417H352.916V207.719ZM349.163 182.031C349.163 181.468 349.332 180.993 349.67 180.605C350.02 180.218 350.533 180.024 351.209 180.024C351.884 180.024 352.397 180.218 352.747 180.605C353.097 180.993 353.273 181.468 353.273 182.031C353.273 182.594 353.097 183.063 352.747 183.439C352.397 183.814 351.884 184.002 351.209 184.002C350.533 184.002 350.02 183.814 349.67 183.439C349.332 183.063 349.163 182.594 349.163 182.031ZM365.188 203.009L370.216 187.417H373.763L366.482 207.719H363.837L356.481 187.417H360.027L365.188 203.009Z" fill="black"/>
<path d="M385.239 208.094C382.487 208.094 380.248 207.194 378.521 205.392C376.795 203.578 375.932 201.158 375.932 198.131V197.493C375.932 195.479 376.314 193.684 377.077 192.108C377.852 190.519 378.928 189.28 380.304 188.392C381.693 187.492 383.194 187.041 384.807 187.041C387.447 187.041 389.498 187.911 390.962 189.649C392.425 191.388 393.157 193.878 393.157 197.117V198.562H379.403C379.453 200.564 380.035 202.184 381.148 203.422C382.274 204.648 383.7 205.261 385.427 205.261C386.652 205.261 387.691 205.011 388.541 204.51C389.392 204.01 390.136 203.347 390.774 202.521L392.894 204.173C391.193 206.787 388.641 208.094 385.239 208.094ZM384.807 189.893C383.406 189.893 382.23 190.406 381.28 191.432C380.329 192.445 379.741 193.871 379.516 195.71H389.686V195.447C389.586 193.684 389.11 192.32 388.26 191.357C387.409 190.381 386.258 189.893 384.807 189.893Z" fill="black"/>
<path d="M818.995 207.719H815.505V184.583L808.506 187.154V184.002L818.451 180.268H818.995V207.719ZM845.734 187.529C845.734 188.893 845.371 190.106 844.645 191.169C843.932 192.233 842.963 193.064 841.737 193.665C843.163 194.278 844.289 195.172 845.114 196.348C845.952 197.524 846.372 198.856 846.372 200.345C846.372 202.709 845.571 204.592 843.97 205.993C842.381 207.394 840.286 208.094 837.684 208.094C835.057 208.094 832.949 207.394 831.361 205.993C829.784 204.579 828.996 202.697 828.996 200.345C828.996 198.869 829.397 197.537 830.197 196.348C831.01 195.16 832.13 194.259 833.556 193.646C832.343 193.046 831.386 192.214 830.685 191.151C829.985 190.087 829.634 188.88 829.634 187.529C829.634 185.227 830.372 183.401 831.848 182.05C833.324 180.699 835.27 180.024 837.684 180.024C840.086 180.024 842.025 180.699 843.501 182.05C844.989 183.401 845.734 185.227 845.734 187.529ZM842.9 200.27C842.9 198.744 842.412 197.499 841.437 196.536C840.473 195.573 839.21 195.091 837.646 195.091C836.083 195.091 834.826 195.566 833.875 196.517C832.937 197.468 832.468 198.719 832.468 200.27C832.468 201.821 832.924 203.041 833.837 203.929C834.763 204.817 836.045 205.261 837.684 205.261C839.31 205.261 840.586 204.817 841.512 203.929C842.437 203.028 842.9 201.808 842.9 200.27ZM837.684 182.876C836.32 182.876 835.213 183.301 834.363 184.152C833.525 184.99 833.106 186.134 833.106 187.585C833.106 188.974 833.518 190.1 834.344 190.963C835.182 191.814 836.295 192.239 837.684 192.239C839.072 192.239 840.18 191.814 841.005 190.963C841.843 190.1 842.262 188.974 842.262 187.585C842.262 186.197 841.831 185.065 840.968 184.189C840.104 183.314 839.01 182.876 837.684 182.876ZM850.987 213.16L849.017 211.809C850.193 210.171 850.806 208.482 850.856 206.743V203.61H854.252V206.33C854.252 207.594 853.94 208.857 853.314 210.121C852.701 211.384 851.926 212.397 850.987 213.16ZM875.924 182.35L864.61 207.719H860.97L872.247 183.251H857.461V180.399H875.924V182.35ZM897.766 207.719H879.865V205.223L889.322 194.716C890.723 193.127 891.686 191.839 892.211 190.85C892.749 189.85 893.018 188.818 893.018 187.754C893.018 186.328 892.587 185.159 891.724 184.246C890.86 183.332 889.71 182.876 888.271 182.876C886.545 182.876 885.2 183.37 884.237 184.358C883.286 185.334 882.811 186.697 882.811 188.449H879.34C879.34 185.934 880.146 183.902 881.76 182.35C883.386 180.799 885.557 180.024 888.271 180.024C890.81 180.024 892.818 180.693 894.294 182.031C895.77 183.357 896.508 185.127 896.508 187.342C896.508 190.031 894.795 193.233 891.367 196.949L884.049 204.886H897.766V207.719ZM918.575 196.067C918.575 200.132 917.88 203.153 916.492 205.13C915.103 207.106 912.933 208.094 909.981 208.094C907.066 208.094 904.908 207.131 903.507 205.205C902.106 203.266 901.381 200.376 901.331 196.536V191.901C901.331 187.886 902.025 184.902 903.413 182.951C904.802 180.999 906.979 180.024 909.943 180.024C912.883 180.024 915.047 180.968 916.435 182.857C917.824 184.733 918.537 187.635 918.575 191.563V196.067ZM915.103 191.319C915.103 188.38 914.69 186.241 913.865 184.902C913.039 183.551 911.732 182.876 909.943 182.876C908.167 182.876 906.872 183.545 906.059 184.883C905.246 186.222 904.827 188.28 904.802 191.057V196.611C904.802 199.563 905.227 201.746 906.078 203.159C906.941 204.56 908.242 205.261 909.981 205.261C911.695 205.261 912.964 204.598 913.79 203.272C914.628 201.946 915.066 199.857 915.103 197.005V191.319ZM936.175 187.417L936.269 189.668C937.757 187.917 939.765 187.041 942.292 187.041C945.132 187.041 947.064 188.13 948.09 190.306C948.765 189.33 949.641 188.542 950.717 187.942C951.805 187.342 953.087 187.041 954.563 187.041C959.017 187.041 961.281 189.399 961.356 194.115V207.719H957.885V194.322C957.885 192.871 957.553 191.789 956.89 191.076C956.227 190.35 955.114 189.987 953.55 189.987C952.262 189.987 951.192 190.375 950.342 191.151C949.491 191.914 948.997 192.946 948.859 194.247V207.719H945.369V194.415C945.369 191.463 943.924 189.987 941.035 189.987C938.758 189.987 937.201 190.957 936.363 192.896V207.719H932.891V187.417H936.175ZM978.431 202.334C978.431 201.396 978.075 200.67 977.361 200.157C976.661 199.632 975.429 199.181 973.665 198.806C971.914 198.431 970.519 197.981 969.481 197.455C968.455 196.93 967.692 196.304 967.192 195.579C966.704 194.853 966.46 193.99 966.46 192.989C966.46 191.326 967.16 189.918 968.561 188.768C969.975 187.617 971.776 187.041 973.965 187.041C976.267 187.041 978.131 187.635 979.557 188.824C980.995 190.012 981.715 191.532 981.715 193.383H978.225C978.225 192.433 977.818 191.613 977.005 190.925C976.204 190.237 975.191 189.893 973.965 189.893C972.702 189.893 971.714 190.169 971.001 190.719C970.288 191.269 969.931 191.989 969.931 192.877C969.931 193.715 970.263 194.347 970.926 194.772C971.588 195.197 972.783 195.604 974.509 195.992C976.248 196.379 977.655 196.842 978.731 197.38C979.807 197.918 980.601 198.569 981.114 199.332C981.64 200.082 981.902 201.002 981.902 202.09C981.902 203.904 981.177 205.361 979.726 206.462C978.275 207.55 976.392 208.094 974.078 208.094C972.452 208.094 971.013 207.807 969.762 207.231C968.511 206.656 967.529 205.855 966.816 204.829C966.116 203.791 965.765 202.672 965.765 201.471H969.237C969.299 202.634 969.762 203.56 970.625 204.248C971.501 204.923 972.652 205.261 974.078 205.261C975.391 205.261 976.442 204.998 977.23 204.473C978.031 203.935 978.431 203.222 978.431 202.334Z" fill="black"/>
<path d="M1025.36 200.092H1021.74V192.765H1025.36V200.092ZM1025.36 207.419H1021.74V203.755H1025.36V207.419ZM1003.42 212.875H1043.68L1023.53 178.11L1003.42 212.875Z" fill="#C7221F"/>
</svg>
