<?xml version="1.0" encoding="utf-8"?>
<!-- Generator: Adobe Illustrator 18.1.1, SVG Export Plug-In . SVG Version: 6.00 Build 0)  -->
<svg version="1.1" id="Layer_1" xmlns="http://www.w3.org/2000/svg" xmlns:xlink="http://www.w3.org/1999/xlink" x="0px" y="0px"
	 viewBox="0 0 247.7 96" enable-background="new 0 0 247.7 96" xml:space="preserve">
<g>
	<path fill="#E51B24" d="M84.3,48c0-1.4,1.1-2.6,2.6-2.6c-0.1-1.4-0.3-2.8-0.5-4.2l0,0c-1.4,0.4-2.8-0.4-3.1-1.8
		c-0.4-1.4,0.4-2.8,1.8-3.1h0c-0.5-1.4-1-2.7-1.6-3.9l0,0c-1.2,0.7-2.8,0.3-3.5-0.9c-0.7-1.2-0.3-2.8,0.9-3.5
		c-0.8-1.2-1.7-2.3-2.6-3.4c-1,1-2.6,1-3.6,0c-1-1-1-2.6,0-3.6c-1.1-0.9-2.2-1.8-3.4-2.6v0c-0.7,1.2-2.3,1.6-3.5,0.9
		c-1.2-0.7-1.6-2.3-0.9-3.5l0,0c-1.3-0.6-2.6-1.2-3.9-1.6v0c-0.4,1.4-1.8,2.2-3.1,1.8c-1.4-0.4-2.2-1.8-1.8-3.1l0,0
		c-1.4-0.3-2.8-0.5-4.2-0.6c0,1.4-1.1,2.6-2.6,2.6c-1.4,0-2.6-1.1-2.6-2.6c-1.4,0.1-2.8,0.3-4.2,0.6v0c0.4,1.4-0.4,2.8-1.8,3.1
		c-1.4,0.4-2.8-0.4-3.1-1.8v0c-1.4,0.5-2.7,1-3.9,1.6l0,0c0.7,1.2,0.3,2.8-0.9,3.5c-1.2,0.7-2.8,0.3-3.5-0.9l0,0
		c-1.2,0.8-2.3,1.7-3.4,2.6c1,1,1,2.6,0,3.6c-1,1-2.6,1-3.6,0v0c-0.9,1.1-1.8,2.2-2.6,3.4h0c1.2,0.7,1.6,2.3,0.9,3.5
		c-0.7,1.2-2.3,1.7-3.5,0.9l0,0c-0.6,1.3-1.2,2.6-1.6,3.9h0c1.4,0.4,2.2,1.8,1.8,3.1c-0.4,1.4-1.8,2.2-3.1,1.8h0
		c-0.3,1.4-0.5,2.8-0.5,4.2c1.4,0,2.6,1.2,2.6,2.6c0,1.4-1.1,2.6-2.6,2.6c0.1,1.4,0.3,2.9,0.5,4.2h0c1.4-0.4,2.8,0.4,3.1,1.8
		c0.4,1.4-0.4,2.8-1.8,3.1h0c0.5,1.4,1,2.7,1.6,3.9l0,0c1.2-0.7,2.8-0.3,3.5,0.9c0.7,1.2,0.3,2.8-0.9,3.5h0c0.8,1.2,1.7,2.3,2.6,3.4
		c1-1,2.6-1,3.6,0c1,1,1,2.6,0,3.6c1.1,0.9,2.2,1.8,3.4,2.6v0c0.7-1.2,2.3-1.6,3.5-0.9c1.2,0.7,1.6,2.3,0.9,3.5l0,0
		c1.3,0.6,2.6,1.2,3.9,1.6l0,0c0.4-1.4,1.8-2.2,3.1-1.8c1.4,0.4,2.2,1.8,1.8,3.1l0,0c1.4,0.3,2.8,0.5,4.2,0.6c0-1.4,1.1-2.6,2.6-2.6
		c1.4,0,2.6,1.1,2.6,2.6v0c1.4-0.1,2.8-0.3,4.2-0.6v0c-0.4-1.4,0.4-2.8,1.8-3.1c1.4-0.4,2.8,0.4,3.1,1.8l0,0c1.3-0.5,2.7-1,3.9-1.6
		l0,0c-0.7-1.2-0.3-2.8,0.9-3.5c1.2-0.7,2.8-0.3,3.5,0.9v0c1.2-0.8,2.3-1.7,3.4-2.6v0c-1-1-1-2.6,0-3.6c1-1,2.6-1,3.6,0
		c0.9-1.1,1.8-2.2,2.6-3.4v0c-1.2-0.7-1.6-2.3-0.9-3.5c0.7-1.2,2.3-1.6,3.5-0.9l0,0c0.6-1.3,1.2-2.6,1.6-4l0,0
		c-1.4-0.4-2.2-1.8-1.8-3.1c0.4-1.4,1.8-2.2,3.1-1.8h0c0.3-1.4,0.4-2.8,0.5-4.2C85.5,50.6,84.3,49.4,84.3,48"/>
	<path fill="#FFFFFF" d="M59.2,53.8c-1.4,0-2.5-1.1-2.5-2.5c0-1.4,1.1-2.5,2.5-2.5c1.4,0,2.5,1.1,2.5,2.5
		C61.7,52.7,60.6,53.8,59.2,53.8 M62.6,27.2h-7l-5.5,41.6h6l1.3-10.1h3.4l1.3,10.1h6L62.6,27.2z"/>
	<path fill="#FFFFFF" d="M41.2,26.9c-2.5,0-4.3,0.7-5.6,2.1c-1.3,1.4-1.9,3.3-1.9,5.6v27c0,2.5,0.6,4.3,1.8,5.6
		c1.2,1.2,3.1,1.9,5.7,1.9c2.3,0,4.2-0.6,5.4-1.9c1.3-1.2,1.9-3.1,1.9-5.5V49.1h-7.6v5h1.9V62c0,0.5-0.2,0.9-0.5,1.2
		c-0.4,0.3-0.8,0.4-1.3,0.4c-0.7,0-1.2-0.2-1.4-0.5c-0.2-0.4-0.3-0.7-0.3-1.1V34.6c0-0.2,0-0.4,0.1-0.7c0.1-0.3,0.1-0.5,0.3-0.7
		c0.1-0.2,0.3-0.4,0.6-0.6c0.2-0.2,0.5-0.2,0.9-0.2v0c0,0,0.1,0,0.1,0c0.4,0,0.7,0.1,0.9,0.2c0.2,0.2,0.4,0.3,0.6,0.6
		c0.1,0.2,0.2,0.5,0.3,0.7c0.1,0.3,0.1,0.5,0.1,0.7v6.3h5.7v-6.3c0-2.3-0.6-4.2-1.9-5.6C45.5,27.6,43.7,26.9,41.2,26.9"/>
	<path d="M105.4,16.1c1.3,0,2.4,0.2,3.4,0.6c1,0.4,1.7,0.9,2.4,1.5c0.6,0.7,1.1,1.4,1.3,2.3c0.3,0.9,0.4,1.9,0.3,2.9l-5.5,0.9
		c0-0.8-0.2-1.6-0.6-2.1c-0.3-0.6-0.8-0.8-1.4-0.8c-0.4,0-0.7,0.1-0.9,0.2c-0.2,0.2-0.4,0.3-0.5,0.6c-0.1,0.2-0.2,0.5-0.3,0.7
		c-0.1,0.3-0.1,0.5-0.1,0.7v14.6c0,0.4,0.1,0.8,0.3,1.1c0.2,0.4,0.6,0.5,1.3,0.5c0.5,0,1-0.1,1.3-0.4c0.3-0.3,0.5-0.7,0.5-1.1v-4.4
		h-1.9V29h7.6v9c0,2.4-0.6,4.2-1.9,5.4c-1.3,1.2-3.1,1.8-5.4,1.8c-2.6,0-4.5-0.6-5.7-1.8c-1.2-1.2-1.8-3-1.8-5.4V23.6
		c0-2.3,0.6-4.1,1.9-5.5C101.1,16.8,103,16.1,105.4,16.1"/>
	<polygon points="115.1,45 115.1,16.3 128.3,16.3 128.3,21.7 120.7,21.7 120.7,27.8 127.4,27.8 127.4,33.1 120.7,33.1 120.7,39.6 
		128.3,39.6 128.3,45 	"/>
	<polygon points="140.8,29.9 140.8,16.3 146.3,16.3 146.3,45 141.5,45 138.1,36.6 136.1,31.2 135.9,31.2 135.9,45 130.3,45 
		130.3,16.3 135.2,16.3 138.6,24.6 140.6,29.9 	"/>
	<polygon points="149.3,45 149.3,16.3 162.6,16.3 162.6,21.7 155,21.7 155,27.8 161.6,27.8 161.6,33.1 155,33.1 155,39.6 
		162.6,39.6 162.6,45 	"/>
	<path d="M170.3,21.7v6.8h0.9c0.4,0,0.8,0,1.2-0.1c0.4-0.1,0.7-0.3,1-0.6c0.3-0.3,0.5-0.6,0.7-1.1c0.2-0.5,0.2-1.1,0.2-1.8
		c0-1.1-0.3-1.9-0.8-2.4c-0.5-0.5-1.2-0.8-2.1-0.8H170.3z M171.5,16.3c1.2,0,2.3,0.1,3.3,0.4c1,0.3,1.9,0.8,2.6,1.4
		c0.7,0.7,1.3,1.6,1.7,2.6c0.4,1.1,0.6,2.4,0.6,4c0,1.9-0.3,3.5-0.8,4.8c-0.5,1.2-1.3,2.2-2.4,3l4.1,12.4h-5.8l-3.4-11.2h-1.1V45
		h-5.6V16.3H171.5z"/>
	<path d="M188.6,29.5l-0.6,4.6h2.6l-0.5-4.6l-0.6-5.8h-0.2L188.6,29.5z M191.4,39.4h-4.2l-0.9,5.6h-6l5.5-28.7h6.9l5.5,28.7h-5.9
		L191.4,39.4z"/>
	<polygon points="199.7,45 199.7,16.3 205.3,16.3 205.3,39.6 212.9,39.6 212.9,45 	"/>
	<path d="M104.3,63.9l-0.6,4.6h2.6l-0.5-4.6l-0.6-5.8H105L104.3,63.9z M107.2,73.7H103l-0.9,5.6h-6l5.5-28.7h6.9l5.5,28.7h-5.9
		L107.2,73.7z"/>
	<path d="M129.8,70.9c0,1.3-0.1,2.5-0.4,3.6c-0.2,1.1-0.6,2-1.2,2.7c-0.6,0.8-1.3,1.3-2.3,1.8c-1,0.4-2.2,0.6-3.7,0.6
		c-1.3,0-2.5-0.2-3.4-0.6c-1-0.4-1.7-0.9-2.3-1.6c-0.6-0.7-1-1.5-1.3-2.4c-0.3-0.9-0.4-1.9-0.4-2.9l5.7-1.1c0.1,1,0.2,1.8,0.5,2.3
		c0.3,0.5,0.7,0.8,1.5,0.8c0.4,0,0.7-0.1,1-0.3c0.2-0.2,0.4-0.4,0.5-0.7c0.1-0.3,0.2-0.7,0.2-1.1c0-0.4,0.1-0.8,0.1-1.2
		c0-0.6,0-1.1-0.1-1.4c-0.1-0.4-0.2-0.7-0.4-1c-0.2-0.3-0.5-0.5-0.9-0.7c-0.4-0.2-0.8-0.4-1.3-0.6c-1.4-0.6-2.5-1.2-3.4-1.8
		c-0.9-0.6-1.5-1.3-2-2c-0.5-0.7-0.8-1.4-0.9-2.2c-0.1-0.8-0.2-1.6-0.2-2.6c0-1.2,0.1-2.3,0.4-3.3c0.3-1,0.7-1.9,1.3-2.6
		c0.6-0.7,1.4-1.3,2.3-1.7c1-0.4,2.1-0.6,3.5-0.6c1.4,0,2.6,0.2,3.6,0.7c0.9,0.5,1.7,1,2.2,1.7c0.5,0.7,0.9,1.5,1.1,2.3
		c0.2,0.9,0.3,1.7,0.3,2.5l-5.6,1.2c0-0.4,0-0.8-0.1-1.2c0-0.4-0.1-0.7-0.3-1c-0.1-0.3-0.3-0.5-0.6-0.7c-0.2-0.2-0.6-0.2-1-0.2
		c-0.4,0-0.7,0.1-0.9,0.3c-0.2,0.2-0.4,0.4-0.5,0.7c-0.1,0.3-0.2,0.6-0.2,0.9c0,0.3-0.1,0.6-0.1,0.9c0,0.4,0,0.7,0.1,1
		c0.1,0.3,0.2,0.6,0.4,0.9c0.2,0.3,0.5,0.5,1,0.8c0.4,0.3,1,0.5,1.8,0.8c1.3,0.5,2.4,1.1,3.1,1.6c0.8,0.6,1.4,1.2,1.8,1.9
		c0.4,0.7,0.7,1.5,0.8,2.3C129.8,68.8,129.8,69.8,129.8,70.9"/>
	<path d="M146.5,70.9c0,1.3-0.1,2.5-0.4,3.6c-0.2,1.1-0.6,2-1.2,2.7c-0.6,0.8-1.3,1.3-2.3,1.8c-1,0.4-2.2,0.6-3.7,0.6
		c-1.3,0-2.5-0.2-3.4-0.6c-1-0.4-1.7-0.9-2.3-1.6c-0.6-0.7-1-1.5-1.3-2.4c-0.3-0.9-0.4-1.9-0.4-2.9l5.7-1.1c0.1,1,0.2,1.8,0.5,2.3
		c0.3,0.5,0.7,0.8,1.5,0.8c0.4,0,0.7-0.1,1-0.3c0.2-0.2,0.4-0.4,0.5-0.7c0.1-0.3,0.2-0.7,0.2-1.1c0-0.4,0.1-0.8,0.1-1.2
		c0-0.6,0-1.1-0.1-1.4c-0.1-0.4-0.2-0.7-0.4-1c-0.2-0.3-0.5-0.5-0.9-0.7c-0.4-0.2-0.8-0.4-1.3-0.6c-1.4-0.6-2.5-1.2-3.4-1.8
		c-0.9-0.6-1.5-1.3-2-2c-0.5-0.7-0.8-1.4-0.9-2.2c-0.1-0.8-0.2-1.6-0.2-2.6c0-1.2,0.1-2.3,0.4-3.3c0.3-1,0.7-1.9,1.3-2.6
		c0.6-0.7,1.4-1.3,2.3-1.7s2.1-0.6,3.5-0.6c1.4,0,2.6,0.2,3.6,0.7c0.9,0.5,1.7,1,2.2,1.7c0.5,0.7,0.9,1.5,1.1,2.3
		c0.2,0.9,0.3,1.7,0.3,2.5l-5.6,1.2c0-0.4,0-0.8-0.1-1.2c0-0.4-0.1-0.7-0.3-1c-0.1-0.3-0.3-0.5-0.6-0.7c-0.2-0.2-0.6-0.2-1-0.2
		c-0.4,0-0.7,0.1-0.9,0.3c-0.2,0.2-0.4,0.4-0.5,0.7c-0.1,0.3-0.2,0.6-0.2,0.9c0,0.3-0.1,0.6-0.1,0.9c0,0.4,0,0.7,0.1,1
		c0.1,0.3,0.2,0.6,0.4,0.9c0.2,0.3,0.5,0.5,1,0.8c0.4,0.3,1,0.5,1.8,0.8c1.3,0.5,2.4,1.1,3.1,1.6c0.8,0.6,1.4,1.2,1.8,1.9
		c0.4,0.7,0.7,1.5,0.8,2.3C146.4,68.8,146.5,69.8,146.5,70.9"/>
	<polygon points="148.8,79.3 148.8,50.7 162.1,50.7 162.1,56 154.5,56 154.5,62.1 161.1,62.1 161.1,67.5 154.5,67.5 154.5,74 
		162.1,74 162.1,79.3 	"/>
	<polygon points="172.3,73.7 171.1,70.1 169.7,65.8 169.5,65.8 169.5,79.3 163.9,79.3 163.9,50.7 169.2,50.7 172,58.3 174,64 
		174.2,64 176.2,58.2 179,50.7 184.3,50.7 184.3,79.3 178.7,79.3 178.7,65.9 178.5,65.9 177.1,70.4 176,73.7 	"/>
	<path d="M196.3,70c0-1.2-0.2-2-0.6-2.4c-0.4-0.5-1-0.7-1.8-0.7h-1V74h1c0.5,0,0.9-0.1,1.3-0.3c0.3-0.2,0.6-0.5,0.7-0.8
		c0.2-0.4,0.3-0.8,0.4-1.2C196.3,71.1,196.3,70.6,196.3,70 M196.1,58.8c0-1.1-0.2-1.9-0.6-2.2c-0.4-0.4-1.1-0.6-2-0.6h-0.6v5.7h0.7
		C195.3,61.7,196.1,60.7,196.1,58.8 M198.3,64.3c0.7,0.2,1.2,0.5,1.6,0.9c0.4,0.4,0.8,0.9,1,1.4c0.3,0.5,0.5,1.1,0.6,1.8
		c0.1,0.6,0.2,1.3,0.2,1.9c0,3.1-0.7,5.3-2,6.8c-1.4,1.4-3.4,2.2-6.1,2.2h-6.4V50.7h6.5c2.6,0,4.5,0.7,5.8,2c1.3,1.3,1.9,3.3,1.9,6
		c0,0.6-0.1,1.1-0.2,1.7c-0.1,0.6-0.3,1.1-0.6,1.6c-0.2,0.5-0.6,0.9-1,1.3c-0.4,0.4-0.9,0.7-1.4,0.9V64.3z"/>
	<polygon points="204.7,79.3 204.7,50.7 210.4,50.7 210.4,74 217.9,74 217.9,79.3 	"/>
	<polygon points="223.9,61.1 225,56.3 226.2,50.7 232.2,50.7 226.6,67.7 226.6,79.3 220.9,79.3 220.9,67.7 215.3,50.7 221.3,50.7 
		222.7,56.4 223.7,61.1 	"/>
</g>
</svg>
